<?xml version="1.0" encoding="utf-8"?>
<!-- Generator: Adobe Illustrator 16.0.0, SVG Export Plug-In . SVG Version: 6.00 Build 0)  -->
<!DOCTYPE svg PUBLIC "-//W3C//DTD SVG 1.1//EN" "http://www.w3.org/Graphics/SVG/1.1/DTD/svg11.dtd">
<svg version="1.1" id="图层_1" xmlns="http://www.w3.org/2000/svg" xmlns:xlink="http://www.w3.org/1999/xlink" x="0px" y="0px"
	 width="612px" height="792px" viewBox="0 0 612 792" enable-background="new 0 0 612 792" xml:space="preserve">
<path d="M305.72,81C114.54,81-41,222.64-41,396.75c0,56.58,16.81,112.03,48.71,160.87l-33.39,147.06l145.27-41.51
	c55.59,32.28,119.76,49.311,186.13,49.311c191.169,0,346.69-141.65,346.69-315.73C652.41,222.64,496.89,81,305.72,81z
	 M305.72,680.34c-63.58,0-124.86-16.96-177.21-49.05l-7.29-4.46L19.69,655.85L43.01,553.16l-4.86-7.04
	C6.95,501.04-9.54,449.39-9.54,396.75c0-156.39,141.44-283.62,315.26-283.62c173.81,0,315.22,127.23,315.22,283.62
	C620.94,553.13,479.53,680.34,305.72,680.34z"/>
</svg>
