<?xml version="1.0" encoding="utf-8"?>
<!-- Generator: Adobe Illustrator 16.0.0, SVG Export Plug-In . SVG Version: 6.00 Build 0)  -->
<!DOCTYPE svg PUBLIC "-//W3C//DTD SVG 1.1//EN" "http://www.w3.org/Graphics/SVG/1.1/DTD/svg11.dtd">
<svg version="1.1" xmlns="http://www.w3.org/2000/svg" xmlns:xlink="http://www.w3.org/1999/xlink" x="0px" y="0px" width="612px"
	 height="792px" viewBox="0 0 612 792" enable-background="new 0 0 612 792" xml:space="preserve">
<g id="图层_1">
	<g>
		<g>
			<defs>
				<rect id="SVGID_1_" x="-106" y="41" width="823.88" height="710.88"/>
			</defs>
			<clipPath id="SVGID_2_">
				<use xlink:href="#SVGID_1_"  overflow="visible"/>
			</clipPath>
			<path clip-path="url(#SVGID_2_)" d="M593.661,750.918H-64.53l-34.66-22.207l-2.114-6.465c-1-3.098-9.894-31.551-0.664-60.988
				l0.883-3.012l1.879-2.547c21.441-29.324,74.996-58.762,131.777-89.879c52.008-28.547,130.434-71.668,130.879-94.543l0.118-21.668
				c-49.551-47.887-76.774-113.102-76.774-184.652c0-110.672,21.106-223.887,177.879-223.887
				c156.777,0,177.883,113.215,177.883,223.887c0,71.551-27.238,136.883-76.773,184.652l0.113,22.117
				c0.438,22.566,78.988,65.676,130.883,94.219c56.664,31.207,110.336,60.547,131.66,89.883l1.895,2.547l0.996,2.996
				c9.102,29.566,0.32,57.883-0.676,61.105l-2.113,6.441L593.661,750.918z M-53.432,713.031h635.968l13.352-8.449
				c1.215-6.668,2.547-17.789-0.129-28.887c-18.328-22.105-68.645-49.781-117.324-76.559
				c-80.32-44.094-149.656-82.199-150.555-126.977l-0.113-39.129l6.219-5.645c45.453-41.113,70.566-98.778,70.566-162.446
				c0-117.773-22.898-185.996-139.891-185.996s-139.89,68.223-139.89,185.996c0,63.668,25,121.333,70.554,162.446l6.219,5.645
				l-0.102,38.668c-1.011,45.223-70.335,83.344-150.539,127.426C2.122,625.914-48.21,653.59-66.55,675.68
				c-2.664,11.125-1.332,22.223-0.105,28.902L-53.432,713.031z M505.876,234.926h211.328v38.555H505.876V234.926z M544.56,369.149
				h172.645v38.55H544.56V369.149z M601.864,503.816h115.34v38.207h-115.34V503.816z M601.864,503.816"/>
		</g>
	</g>
</g>
<g id="图层_2">
</g>
</svg>
