<?xml version="1.0" encoding="utf-8"?>
<!-- Generator: Adobe Illustrator 16.0.0, SVG Export Plug-In . SVG Version: 6.00 Build 0)  -->
<!DOCTYPE svg PUBLIC "-//W3C//DTD SVG 1.1//EN" "http://www.w3.org/Graphics/SVG/1.1/DTD/svg11.dtd">
<svg version="1.1" id="图层_1" xmlns="http://www.w3.org/2000/svg" xmlns:xlink="http://www.w3.org/1999/xlink" x="0px" y="0px"
	 width="612px" height="792px" viewBox="0 0 612 792" enable-background="new 0 0 612 792" xml:space="preserve">
<g>
	<g>
		<defs>
			<rect id="SVGID_1_" x="-78" y="12" width="768" height="768"/>
		</defs>
		<clipPath id="SVGID_2_">
			<use xlink:href="#SVGID_1_"  overflow="visible"/>
		</clipPath>
		<path clip-path="url(#SVGID_2_)" d="M577.535,124.465c-149.949-149.953-393.121-149.953-543.07,0
			c-149.953,149.949-149.953,393.121,0,543.07c149.949,149.953,393.121,149.953,543.07,0
			C727.488,517.586,727.488,274.414,577.535,124.465L577.535,124.465z M60.48,641.52c-135.601-135.598-135.601-355.441,0-491.04
			c135.598-135.601,355.442-135.601,491.04,0c135.602,135.598,135.602,355.442,0,491.086
			C415.922,777.215,196.078,777.121,60.48,641.52L60.48,641.52z M60.48,641.52"/>
	</g>
	<path d="M250.031,336.527l-140.254,259.25l254.301-145.203l145.203-254.301L250.031,336.527z M309.504,421.152
		c-13.918,0-25.152-11.23-25.152-25.152c0-13.871,11.281-25.152,25.152-25.152s25.152,11.281,25.152,25.152
		C334.656,409.922,323.375,421.152,309.504,421.152L309.504,421.152z M309.504,421.152"/>
</g>
</svg>
