<?xml version="1.0" encoding="utf-8"?>
<!-- Generator: Adobe Illustrator 16.0.0, SVG Export Plug-In . SVG Version: 6.00 Build 0)  -->
<!DOCTYPE svg PUBLIC "-//W3C//DTD SVG 1.1//EN" "http://www.w3.org/Graphics/SVG/1.1/DTD/svg11.dtd">
<svg version="1.1" id="图层_1" xmlns="http://www.w3.org/2000/svg" xmlns:xlink="http://www.w3.org/1999/xlink" x="0px" y="0px"
	 width="612px" height="792px" viewBox="0 0 612 792" enable-background="new 0 0 612 792" xml:space="preserve">
<path fill="none" stroke="#000000" stroke-miterlimit="10" d="M60.48,641.52"/>
<path d="M309.504,421.152c-13.918,0-25.152-11.23-25.152-25.152c0-13.871,11.281-25.152,25.152-25.152s25.152,11.281,25.152,25.152
	C334.656,409.922,323.375,421.152,309.504,421.152L309.504,421.152z"/>
<path d="M309.504,421.152"/>
<g>
	<g id="XMLID_1_">
		<g>
			<path d="M577.54,124.46c149.95,149.95,149.95,393.13,0,543.08s-393.13,149.95-543.08,0s-149.95-393.13,0-543.08
				S427.59-25.49,577.54,124.46z M364.08,450.57l145.2-254.3L250.03,336.53L109.78,595.78L364.08,450.57z"/>
		</g>
		<g>
			<path fill="none" stroke="#000000" stroke-miterlimit="10" d="M577.54,124.46c-149.95-149.95-393.13-149.95-543.08,0
				s-149.95,393.13,0,543.08s393.13,149.95,543.08,0S727.49,274.41,577.54,124.46z"/>
			<polygon fill="none" stroke="#000000" stroke-miterlimit="10" points="250.03,336.53 109.78,595.78 364.08,450.57 509.28,196.27 
							"/>
		</g>
	</g>
</g>
</svg>
