<?xml version="1.0" encoding="utf-8"?>
<!-- Generator: Adobe Illustrator 16.0.0, SVG Export Plug-In . SVG Version: 6.00 Build 0)  -->
<!DOCTYPE svg PUBLIC "-//W3C//DTD SVG 1.1//EN" "http://www.w3.org/Graphics/SVG/1.1/DTD/svg11.dtd">
<svg version="1.1" id="图层_1" xmlns="http://www.w3.org/2000/svg" xmlns:xlink="http://www.w3.org/1999/xlink" x="0px" y="0px"
	 width="612px" height="792px" viewBox="0 0 612 792" enable-background="new 0 0 612 792" xml:space="preserve">
<g>
	<path fill="#323232" d="M-104,804.715v-65.418c76.777-77.582,202.758-159.418,327.715-174.871v-51.617
		C147.086,483.246,92.629,409.172,92.629,322.262V191.426C92.629,78.531,184.336-13,297.453-13h16.387
		c113.117,0,204.82,91.528,204.82,204.426v130.836c0,80.926-46.355,154.945-114.699,188.07c0.594,21.609,0,58.773,0,58.773
		c120.238,21.793,240.523,90.5,311.332,170.191v65.418H-104z M682.52,755.653c-63.734-71.325-203.109-144.056-311.332-163.54
		c0,0,0.223-77.035,0-98.133c66.773-23.605,114.699-96.992,114.699-171.719V191.426c0-94.832-77.031-171.719-172.051-171.719
		h-16.387c-95.019,0-172.051,76.887-172.051,171.719v130.836c0,80.715,55.879,153.352,131.086,171.719v98.133
		C144.027,605.941-2.133,686.211-71.23,755.653v16.354h753.75V755.653z M682.52,755.653"/>
	<path fill="#323232" d="M-104,804.715v-65.418c76.777-77.582,202.758-159.418,327.715-174.871v-51.617
		C147.086,483.246,92.629,409.172,92.629,322.262V191.426C92.629,78.531,184.336-13,297.453-13h16.387
		c113.117,0,204.82,91.528,204.82,204.426v130.836c0,80.926-46.355,154.945-114.699,188.07c0.594,21.609,0,58.773,0,58.773
		c120.238,21.793,240.523,90.5,311.332,170.191v65.418H-104z M682.52,755.653c-63.734-71.325-203.109-144.056-311.332-163.54
		c0,0,0.223-77.035,0-98.133c66.773-23.605,114.699-96.992,114.699-171.719V191.426c0-94.832-77.031-171.719-172.051-171.719
		h-16.387c-95.019,0-172.051,76.887-172.051,171.719v130.836c0,80.715,55.879,153.352,131.086,171.719v98.133
		C144.027,605.941-2.133,686.211-71.23,755.653v16.354h753.75V755.653z M682.52,755.653"/>
</g>
</svg>
