<?xml version="1.0" standalone="no"?><!DOCTYPE svg PUBLIC "-//W3C//DTD SVG 1.1//EN" "http://www.w3.org/Graphics/SVG/1.1/DTD/svg11.dtd"><svg t="1512097802727" class="icon" style="" viewBox="0 0 1024 1024" version="1.1" xmlns="http://www.w3.org/2000/svg" p-id="1761" xmlns:xlink="http://www.w3.org/1999/xlink" width="16" height="16"><defs><style type="text/css"></style></defs><path d="M512.019394 104.727273C264.837172 104.727273 63.734949 287.857778 63.734949 512.969697c0 73.153939 21.734141 144.846869 62.978586 207.993535l-43.170909 190.138182 187.823839-53.669495c71.873939 41.735758 154.841212 63.755636 240.652929 63.755637 247.168 0 448.245657-183.143434 448.245657-408.216566C960.265051 287.857778 759.188687 104.727273 512.019394 104.727273z m0 774.904242c-82.204444 0-161.435152-21.928081-229.12-63.418182l-9.425455-5.766464-131.271111 37.520808 30.151111-132.770909-6.283636-9.102223C125.730909 647.809293 104.410505 581.029495 104.410505 512.969697c0-202.201212 182.871919-366.700606 407.608889-366.700606 224.72404 0 407.557172 164.499394 407.557172 366.700606 0 202.188283-182.833131 366.661818-407.557172 366.661818z" p-id="1762"></path></svg>