<?xml version="1.0" encoding="utf-8"?>
<!-- Generator: Adobe Illustrator 16.0.0, SVG Export Plug-In . SVG Version: 6.00 Build 0)  -->
<!DOCTYPE svg PUBLIC "-//W3C//DTD SVG 1.1//EN" "http://www.w3.org/Graphics/SVG/1.1/DTD/svg11.dtd">
<svg version="1.1" id="图层_1" xmlns="http://www.w3.org/2000/svg" xmlns:xlink="http://www.w3.org/1999/xlink" x="0px" y="0px"
	 width="16.641px" height="16px" viewBox="0 0 16.641 16" enable-background="new 0 0 16.641 16" xml:space="preserve">
<path d="M14.137,15.17H0.84l-0.7-0.448l-0.043-0.131c-0.02-0.063-0.2-0.638-0.013-1.231l0.018-0.062l0.038-0.052
	c0.433-0.592,1.515-1.187,2.662-1.815c1.051-0.577,2.635-1.448,2.644-1.91l0.002-0.438c-1.001-0.967-1.551-2.285-1.551-3.73
	c0-2.236,0.426-4.523,3.593-4.523c3.167,0,3.593,2.287,3.593,4.523c0,1.446-0.55,2.766-1.551,3.73l0.002,0.446
	c0.01,0.457,1.596,1.327,2.645,1.904c1.145,0.63,2.229,1.223,2.66,1.815l0.038,0.052l0.021,0.061
	c0.184,0.598,0.006,1.169-0.014,1.234l-0.043,0.13L14.137,15.17z"/>
<rect x="12.363" y="4.746" width="4.27" height="0.779"/>
<rect x="13.145" y="7.458" width="3.488" height="0.779"/>
<rect x="14.303" y="10.178" width="2.33" height="0.772"/>
</svg>
