<?xml version="1.0" standalone="no"?><!DOCTYPE svg PUBLIC "-//W3C//DTD SVG 1.1//EN" "http://www.w3.org/Graphics/SVG/1.1/DTD/svg11.dtd"><svg t="1512097786701" class="icon" style="" viewBox="0 0 1065 1024" version="1.1" xmlns="http://www.w3.org/2000/svg" p-id="1388" xmlns:xlink="http://www.w3.org/1999/xlink" width="16.640625" height="16"><defs><style type="text/css"></style></defs><path d="M904.767884 970.883879H53.773459l-44.812929-28.712081-2.733252-8.358788c-1.292929-4.005495-12.792242-40.793212-0.858505-78.853172l1.141656-3.894303 2.429414-3.293091c27.721697-37.913859 96.964525-75.975111 170.378344-116.207191 67.242667-36.909253 168.641939-92.661657 169.217293-122.237415l0.152565-28.015192c-64.065939-61.914505-99.263354-146.232889-99.263353-238.741979 0-143.091071 27.288566-289.470061 229.984969-289.470061 202.701576 0 229.990141 146.37899 229.990142 289.470061 0 92.510384-35.216808 176.98004-99.262061 238.741979l0.146101 28.595718c0.566303 29.176242 102.125899 84.914424 169.222465 121.818505 73.262545 40.348444 142.656646 78.28299 170.227071 116.212363l2.450101 3.293091 1.287757 3.873616c11.768242 38.226747 0.413737 74.838626-0.87402 79.004445l-2.73196 8.327757-45.097373 28.445738z m-836.645495-48.985212h822.261656l17.263192-10.92396c1.570909-8.621253 3.293091-22.999919-0.166788-37.348848-23.696808-28.580202-88.753131-64.363313-151.691636-98.985374-103.848081-57.010424-193.494626-106.277495-194.65697-164.172283l-0.146101-50.59103 8.040727-7.298586c58.767515-53.156202 91.236848-127.71297 91.236849-210.031192 0-152.272162-29.605495-240.479677-180.869172-240.479677s-180.867879 88.207515-180.867879 240.479677c0 82.318222 32.323232 156.87499 91.221334 210.031192l8.040727 7.298586-0.131879 49.99499c-1.307152 58.470141-90.938182 107.757899-194.636283 164.752808C139.949783 809.262545 74.874065 845.045657 51.161742 873.606465c-3.444364 14.383838-1.722182 28.732768-0.135757 37.368242l17.096404 10.92396z m723.145697-618.15596h273.232161v49.848889H791.268086v-49.848889z m50.015676 173.540849h223.217778v49.842424H841.283762v-49.842424z m74.090021 174.114909h149.126464v49.398949h-149.126464v-49.398949z m0 0" p-id="1389"></path></svg>