<?xml version="1.0" standalone="no"?><!DOCTYPE svg PUBLIC "-//W3C//DTD SVG 1.1//EN" "http://www.w3.org/Graphics/SVG/1.1/DTD/svg11.dtd"><svg t="1512097774692" class="icon" style="" viewBox="0 0 1024 1024" version="1.1" xmlns="http://www.w3.org/2000/svg" p-id="1140" xmlns:xlink="http://www.w3.org/1999/xlink" width="16" height="16"><defs><style type="text/css"></style></defs><path d="M863.075556 160.924444c-193.873455-193.878626-508.277657-193.878626-702.151112 0-193.878626 193.873455-193.878626 508.277657 0 702.151112 193.873455 193.878626 508.277657 193.878626 702.151112 0 193.878626-193.873455 193.878626-508.277657 0-702.151112zM194.56 829.44c-175.322505-175.318626-175.322505-459.560081 0-634.88 175.318626-175.322505 459.561374-175.322505 634.88 0 175.323798 175.318626 175.323798 459.561374 0 634.939475-175.318626 175.384566-459.561374 175.26303-634.88-0.059475z m0 0" p-id="1141"></path><path d="M439.63604 435.105616l-181.338505 335.191919 328.793212-187.737212 187.737213-328.793212-335.19192 181.338505z m76.894384 109.414142c-17.99499 0-32.519758-14.519596-32.519757-32.519758 0-17.934222 14.585535-32.519758 32.519757-32.519758s32.519758 14.585535 32.519758 32.519758c0 18.000162-14.585535 32.519758-32.519758 32.519758z m0 0" p-id="1142"></path></svg>