<?xml version="1.0" encoding="utf-8"?>
<!-- Generator: Adobe Illustrator 16.0.0, SVG Export Plug-In . SVG Version: 6.00 Build 0)  -->
<!DOCTYPE svg PUBLIC "-//W3C//DTD SVG 1.1//EN" "http://www.w3.org/Graphics/SVG/1.1/DTD/svg11.dtd">
<svg version="1.1" id="图层_1" xmlns="http://www.w3.org/2000/svg" xmlns:xlink="http://www.w3.org/1999/xlink" x="0px" y="0px"
	 width="16.547px" height="16px" viewBox="0 0 16.547 16" enable-background="new 0 0 16.547 16" xml:space="preserve">
<path d="M0.066,16v-1.28c1.502-1.518,3.967-3.119,6.413-3.421v-1.011C4.979,9.71,3.914,8.261,3.914,6.56V4c0-2.209,1.794-4,4.008-4
	h0.32c2.213,0,4.008,1.791,4.008,4v2.56c0,1.583-0.908,3.032-2.244,3.68c0.011,0.422,0,1.149,0,1.149
	c2.352,0.427,4.705,1.771,6.092,3.33V16H0.066z"/>
<path d="M0.066,16v-1.28c1.502-1.518,3.967-3.119,6.413-3.421v-1.011C4.979,9.71,3.914,8.261,3.914,6.56V4c0-2.209,1.794-4,4.008-4
	h0.32c2.213,0,4.008,1.791,4.008,4v2.56c0,1.583-0.908,3.032-2.244,3.68c0.011,0.422,0,1.149,0,1.149
	c2.352,0.427,4.705,1.771,6.092,3.33V16H0.066z"/>
</svg>
