<?xml version="1.0" standalone="no"?><!DOCTYPE svg PUBLIC "-//W3C//DTD SVG 1.1//EN" "http://www.w3.org/Graphics/SVG/1.1/DTD/svg11.dtd"><svg t="1512097781703" class="icon" style="" viewBox="0 0 1059 1024" version="1.1" xmlns="http://www.w3.org/2000/svg" p-id="1264" xmlns:xlink="http://www.w3.org/1999/xlink" width="16.546875" height="16"><defs><style type="text/css"></style></defs><path d="M4.228562 1024v-81.921002c96.145537-97.153615 253.90777-199.634386 410.387678-218.985715v-64.638423C318.656038 621.434001 250.461168 528.67335 250.461168 419.83856V255.996556C250.461168 114.62153 365.303098 0 506.956128 0h20.520949c141.653031 0 256.489951 114.617773 256.489951 255.996556v163.842004c0 101.341206-58.048978 194.032982-143.634122 235.514427 0.743848 27.060303 0 73.599667 0 73.599668 150.570446 27.290721 301.199748 113.330439 389.871738 213.125091v81.921002H4.228562z m984.935436-61.438873c-79.812179-89.318161-254.347317-180.397014-389.871738-204.796243 0 0 0.279256-96.468623 0-122.889016 83.617828-29.559834 143.634122-121.460176 143.634122-215.03856V255.996556c0-118.755273-96.463614-215.03856-215.454314-215.03856h-20.520949c-118.989447 0-215.454314 96.283287-215.454313 215.03856v163.842004c0 101.076977 69.975598 192.038116 164.155071 215.03856v122.889016C314.825344 775.081274 131.793554 875.600991 45.265451 962.561127v20.479624h943.898547v-20.479624z m0 0" p-id="1265"></path><path d="M4.228562 1024v-81.921002c96.145537-97.153615 253.90777-199.634386 410.387678-218.985715v-64.638423C318.656038 621.434001 250.461168 528.67335 250.461168 419.83856V255.996556C250.461168 114.62153 365.303098 0 506.956128 0h20.520949c141.653031 0 256.489951 114.617773 256.489951 255.996556v163.842004c0 101.341206-58.048978 194.032982-143.634122 235.514427 0.743848 27.060303 0 73.599667 0 73.599668 150.570446 27.290721 301.199748 113.330439 389.871738 213.125091v81.921002H4.228562z m984.935436-61.438873c-79.812179-89.318161-254.347317-180.397014-389.871738-204.796243 0 0 0.279256-96.468623 0-122.889016 83.617828-29.559834 143.634122-121.460176 143.634122-215.03856V255.996556c0-118.755273-96.463614-215.03856-215.454314-215.03856h-20.520949c-118.989447 0-215.454314 96.283287-215.454313 215.03856v163.842004c0 101.076977 69.975598 192.038116 164.155071 215.03856v122.889016C314.825344 775.081274 131.793554 875.600991 45.265451 962.561127v20.479624h943.898547v-20.479624z m0 0" p-id="1266"></path></svg>